<svg xmlns="http://www.w3.org/2000/svg" width="308" height="51" viewBox="0 0 308 51" xmlns:xlink="http://www.w3.org/1999/xlink">
  <defs>
    <polygon id="a" points="0 21.366 0 0 66 0 66 42.732 0 42.732 0 21.366 0 42.732 66 42.732 66 0 0 0"/>
  </defs>
  <g fill="none" fill-rule="evenodd" transform="translate(0 1)">
    <g fill="#FFFFFF" stroke="#FFFFFF" stroke-width="1.12" transform="translate(113)">
      <path d="M51.8317982,14.5032642 C51.8317982,12.8040836 50.1441944,11.4154319 47.486754,10.8342977 L47.486754,7.91085378 C47.486754,7.85462491 47.4824046,7.79925746 47.475456,7.73852817 L47.4763311,7.71664137 C47.4815295,7.6348779 47.486754,7.55397584 47.486754,7.47221237 C47.486754,3.35238655 44.1732329,0.000813872934 40.1001789,0.000813872934 C39.8672793,0.000813872934 39.6352557,0.0141217521 39.4041071,0.0368699631 C39.2902565,0.0473826603 39.1790312,0.0666940279 39.0669308,0.0834387504 C38.9574296,0.0993132748 38.8470794,0.113262815 38.7384533,0.134507957 C38.5950599,0.161765376 38.4551399,0.195887693 38.3143718,0.231934993 C38.2422371,0.250393742 38.1701024,0.267991083 38.0988428,0.288163859 C37.9415531,0.33300983 37.7877368,0.384087826 37.6356707,0.438593875 C37.584407,0.457043835 37.5331172,0.475502584 37.4827294,0.49567536 C37.3210895,0.558118672 37.1620495,0.624860235 37.005634,0.698686442 C36.9656683,0.717136401 36.9265508,0.737528924 36.887461,0.756840292 C36.725821,0.835808579 36.5676553,0.919286075 36.4129639,1.00984821 C36.3799468,1.02915958 36.3478039,1.05040472 36.3156358,1.06972488 C36.1583452,1.1654291 36.0036799,1.2639285 35.854213,1.37037396 C35.8255183,1.39054673 35.7985738,1.41243354 35.7707812,1.43367868 C35.6195641,1.54526621 35.4700972,1.65942918 35.327578,1.78174916 C35.3258538,1.78347197 35.3232286,1.785186 35.3215053,1.78690003 C33.9919227,0.644180392 32.2929956,0.00252789965 30.5419567,0.00252789965 C30.3090571,0.00252789965 30.0770335,0.0158357789 29.845885,0.0385839898 C29.7320344,0.049096687 29.6208091,0.0684168445 29.5087087,0.0851527771 C29.3992075,0.101036091 29.2888312,0.115196589 29.1802051,0.136221983 C29.0368377,0.163479403 28.8969177,0.197812677 28.7561496,0.233868767 C28.6840149,0.252318726 28.6118802,0.26970511 28.5406215,0.290088843 C28.3833309,0.334943604 28.2295146,0.385801853 28.0774485,0.440307902 C28.0261587,0.458766651 27.9748959,0.477216611 27.9245073,0.497389387 C27.7628682,0.559841488 27.6038274,0.626583051 27.4474119,0.700611426 C27.4074461,0.719070175 27.3683295,0.739242951 27.3292119,0.758554319 C27.1675988,0.837531396 27.0094331,0.921219849 26.8547418,1.01156224 C26.8217246,1.03109336 26.7895817,1.05212754 26.7574136,1.07143891 C26.600123,1.16715192 26.4454316,1.26565132 26.2959647,1.37208798 C26.2672961,1.39226076 26.2403516,1.41414756 26.212559,1.4353927 C26.0613419,1.54698024 25.911875,1.661152 25.7693558,1.78347197 C25.7676056,1.785186 25.7650064,1.78690003 25.7632832,1.78862284 C24.5761927,0.768214397 23.0936689,0.151243889 21.5433606,0.0297853193 C21.5007687,0.023773041 21.4625541,0.00425071624 21.4182389,0.00425071624 C21.3487035,0.00425071624 21.2817933,0.0130493867 21.2131329,0.0149743706 C21.1349247,0.00789851668 21.0593166,-3.8745482e-05 20.9819843,-3.8745482e-05 C19.2309185,-3.8745482e-05 17.5320175,0.641604957 16.2024357,1.78432459 C14.8728531,0.641604957 13.1739521,-3.8745482e-05 11.4228871,-3.8745482e-05 C7.34983221,-3.8745482e-05 4.03631192,3.35152514 4.03631192,7.47135975 C4.03631192,7.55397584 4.04153553,7.6348779 4.04673394,7.71577996 L4.04760904,7.73681414 C4.04066044,7.79389563 4.03631192,7.85204948 4.03631192,7.91085378 L4.03631192,10.9415958 C1.64218822,11.5806641 0.125772132,12.928979 0.125772132,14.5032642 C0.125772132,16.1294712 1.6856543,17.4636169 4.03978535,18.0833738 C4.07367843,22.1733755 7.37157829,25.4906149 11.4228871,25.4906149 L40.1001789,25.4906149 C44.1158705,25.4906149 47.3876749,22.230457 47.4780552,18.1898192 C50.0772581,17.6271438 51.8317982,16.2296935 51.8317982,14.5032642 Z M5.77432961,7.47135975 C5.77432961,4.32107534 8.30834635,1.75793737 11.4228871,1.75793737 C12.8767423,1.75793737 14.2297943,2.31266673 15.2812881,3.31719187 C14.4913616,4.50562767 14.0299136,5.93484468 14.0299136,7.47135975 C14.0299136,7.95741378 14.4183519,8.35034781 14.8989224,8.35034781 C15.3794922,8.35034781 15.7679313,7.95741378 15.7679313,7.47135975 C15.7679313,4.39575416 18.1855243,1.88626084 21.1983606,1.76930269 C22.4523351,1.81673288 23.6229031,2.27296284 24.5779429,3.08070892 C23.6872141,4.3148521 23.1545064,5.830333 23.1545064,7.47135975 C23.1545064,7.95741378 23.5429447,8.35034781 24.0235153,8.35034781 C24.504085,8.35034781 24.8925241,7.95741378 24.8925241,7.47135975 C24.8925241,5.96917795 25.4730212,4.60412707 26.4141647,3.58264626 C26.5340879,3.45259998 26.6592095,3.33049975 26.7878315,3.2135416 C26.8078283,3.19594425 26.826074,3.1774943 26.846043,3.15989695 C26.9590185,3.05967474 27.0772184,2.96739857 27.1962666,2.87769784 C27.2371082,2.84701237 27.277074,2.81439312 27.3187899,2.78542167 C27.4135188,2.71782749 27.5117229,2.65795082 27.6099269,2.5974325 C27.6785604,2.55516196 27.7463457,2.50945458 27.8176053,2.46996165 C27.8871408,2.43133891 27.9592485,2.39785826 28.029633,2.36181096 C28.1295873,2.31159437 28.2286395,2.2590133 28.3320672,2.21416733 C28.3746321,2.19570858 28.4198223,2.18154809 28.4632884,2.16395075 C28.5945096,2.11136968 28.7257308,2.05943907 28.8612753,2.01630712 C28.8812712,2.01029484 28.9021422,2.00579442 28.9229871,1.99957119 C29.0811528,1.95128837 29.2410418,1.90814764 29.405281,1.87403411 C29.4192034,1.87123893 29.4331005,1.87037752 29.4469969,1.86694947 C29.6173348,1.8326162 29.7893968,1.80535878 29.964058,1.78690003 C30.1552408,1.76758866 30.3481747,1.75707596 30.5428318,1.75707596 C31.8784871,1.75707596 33.1289865,2.22468003 34.1387904,3.07984751 C33.2480355,4.3139907 32.7153539,5.82948038 32.7153539,7.47049834 C32.7153539,7.95656116 33.103793,8.3494864 33.5843627,8.3494864 C34.0649055,8.3494864 34.4533716,7.95656116 34.4533716,7.47049834 C34.4533716,5.96831654 35.0338686,4.60327446 35.9749852,3.58179364 C36.0949093,3.45174736 36.220057,3.32963834 36.348679,3.21268019 C36.3686488,3.19508285 36.3868945,3.17663289 36.4068913,3.15903555 C36.5198659,3.05882212 36.6380398,2.96654595 36.7571149,2.87683643 C36.7979557,2.84615096 36.8379214,2.81353171 36.8796373,2.78456026 C36.9743671,2.71696608 37.0725442,2.65708942 37.1707475,2.59657988 C37.2394078,2.55430055 37.3071931,2.50859317 37.3784527,2.46910903 C37.4479621,2.43026655 37.520096,2.39700564 37.5904805,2.36094955 C37.6904078,2.31073296 37.789487,2.25816069 37.8928886,2.21330592 C37.9354796,2.19485597 37.9806698,2.18068668 38.0241098,2.16308934 C38.155331,2.11029731 38.2865522,2.05858645 38.4221228,2.01544571 C38.4421187,2.00922248 38.4629636,2.00493302 38.4838346,1.99870978 C38.6419733,1.95042697 38.8018892,1.90729502 38.9661284,1.87317271 C38.9800247,1.87037752 38.9939211,1.86952491 39.0078443,1.86608806 C39.1781561,1.83175479 39.3502182,1.80449737 39.5249054,1.78604741 C39.7160883,1.76672725 39.9089952,1.75621455 40.1036523,1.75621455 C43.218193,1.75621455 45.7522098,4.31936131 45.7522098,7.46963693 L45.7522098,11.347618 L45.7400376,11.4707906 C45.7391885,11.4892493 45.7313649,11.5059853 45.7296147,11.524444 C45.7183176,11.6246574 45.6957225,11.7220845 45.6540066,11.8092098 C45.6531575,11.8109326 45.6522824,11.8117852 45.6514074,11.8126466 C45.604493,11.9085706 45.5419062,11.9946235 45.4662972,12.0667269 C45.4576253,12.074673 45.4472033,12.078101 45.4385045,12.0860471 C45.36812,12.1484904 45.2907609,12.2029964 45.2038548,12.2390525 C45.1039274,12.2793981 44.9953013,12.3049327 44.8814777,12.3049327 L42.4882021,12.3049327 L40.079334,12.3049327 L32.9291049,12.3049327 L30.5045893,12.3049327 L22.5009988,12.3049327 L20.0782073,12.3049327 L12.9401783,12.3049327 L10.5156358,12.3049327 L6.64333845,12.3049327 C6.53036295,12.3049327 6.42261194,12.2793981 6.32353277,12.2399051 C6.26532134,12.2160846 6.21665684,12.1766004 6.16539401,12.1405531 C6.13150093,12.1167325 6.09413442,12.0991352 6.06371563,12.0710252 C6.00547814,12.0165103 5.95856383,11.9497775 5.91684792,11.8793882 C5.90467485,11.860068 5.88902834,11.8424795 5.87860632,11.8223067 C5.84123894,11.7476279 5.81951893,11.6641416 5.80387243,11.5780886 C5.79692384,11.5383935 5.78215242,11.5014848 5.78040224,11.4602779 L5.77432961,11.402124 L5.77432961,7.93638838 L5.7908512,7.78423555 L5.77432961,7.47135975 Z M41.7539157,14.8337374 C41.7478162,14.8470452 41.745217,14.8601334 41.7382684,14.8732215 C41.6896047,14.9682928 41.6131207,15.0648585 41.5305639,15.1616439 C41.4836496,15.2152885 41.4315108,15.2689419 41.3741484,15.3215142 C41.3133117,15.3788154 41.2455264,15.4350355 41.1733918,15.490403 C41.0595672,15.5773173 40.9326954,15.6627286 40.7936514,15.7444833 C40.7519355,15.7689543 40.7102187,15.7936275 40.6667796,15.8174481 C40.5789975,15.8657309 40.4886171,15.9122997 40.3930392,15.958007 C39.8838017,16.1970742 39.2946059,16.3824792 38.6567456,16.508236 C38.6541464,16.508236 38.6524223,16.5090974 38.649797,16.5090974 C38.3413163,16.5698267 38.0215106,16.6155341 37.6938821,16.6470809 C37.3541075,16.6788388 37.0004356,16.699873 36.6258937,16.699873 C36.3634513,16.699873 36.1036072,16.6876374 35.8472383,16.6691875 C35.7768538,16.6638169 35.7073453,16.6575936 35.6369608,16.6507287 C35.43448,16.63227 35.2354743,16.6084494 35.0390662,16.5786253 C34.9834539,16.5698267 34.9260907,16.5636034 34.8704784,16.5539434 C34.6271568,16.5135978 34.3899087,16.465104 34.1613594,16.4080226 C34.1187945,16.3975011 34.0796769,16.3852743 34.037961,16.3736805 C33.8520027,16.3245451 33.672117,16.2700302 33.4983317,16.2101623 C33.4661628,16.1987882 33.4340207,16.1874141 33.4027269,16.17604 C33.5999832,15.9228211 33.7546746,15.6556439 33.8580762,15.3743062 C33.8589513,15.3725922 33.8598264,15.3700168 33.8607015,15.368083 C33.9084909,15.2380367 33.9449823,15.105415 33.9702027,14.9700069 C33.9728019,14.9586328 33.9762753,14.9481201 33.9788745,14.9365262 C34.0023447,14.7959672 34.017117,14.6508991 34.017117,14.5032642 C34.017117,14.3547592 34.0032198,14.2088296 33.9762753,14.0637702 L41.680906,14.0637702 C41.6939533,14.0847956 41.7165223,14.1077548 41.7278194,14.1279275 C41.7391174,14.1498231 41.7486912,14.1710683 41.7582382,14.1920937 C41.8060537,14.2985303 41.8381966,14.403042 41.8381966,14.5032642 C41.8381966,14.6097009 41.8051786,14.7204358 41.7539157,14.8337374 Z M26.0874113,16.6524428 C26.0126774,16.6453669 25.9388195,16.6391437 25.8649346,16.630345 C25.5538277,16.5962227 25.2496955,16.5522293 24.9585584,16.4923527 C24.9246662,16.4852768 24.8925241,16.4756167 24.858631,16.4687518 C24.5953135,16.4114506 24.3433201,16.342995 24.1025977,16.2666022 C24.0426361,16.247071 23.9809234,16.2286211 23.922712,16.2084483 C23.6680933,16.1206726 23.4273709,16.0230346 23.2075195,15.9140225 C23.1944713,15.9077992 23.1840493,15.9009255 23.171028,15.8938497 C23.1771007,15.885051 23.180575,15.8753909 23.1857995,15.8665923 C23.2387864,15.779467 23.2874778,15.6917 23.330917,15.6011379 C23.3500387,15.5616537 23.3656852,15.5202358 23.3830558,15.4807517 C23.4143497,15.4069255 23.4447676,15.3322466 23.4682117,15.255634 C23.4890827,15.1914679 23.5021039,15.1255878 23.5177513,15.060569 C23.5307986,15.0034875 23.5472941,14.9470477 23.5559929,14.8891048 C23.5768378,14.761634 23.5890109,14.6333017 23.5890109,14.5032642 C23.5890109,14.3556206 23.5751137,14.209691 23.5472941,14.0637702 L32.1113858,14.0637702 C32.1322307,14.0963806 32.1687221,14.1313644 32.1852446,14.1631222 C32.1861197,14.164845 32.1869948,14.1665591 32.1878438,14.1682731 C32.2478054,14.2852312 32.2790993,14.3976802 32.2790993,14.5032642 C32.2790993,14.6060531 32.2460813,14.7142126 32.1974168,14.8240861 C32.1765458,14.8697934 32.1435287,14.9172149 32.113985,14.9637836 C32.0766185,15.0236603 32.0349026,15.0833172 31.9836389,15.1440465 C31.9306259,15.2064898 31.8724136,15.2680805 31.8063524,15.3285988 C31.7637875,15.368083 31.7142488,15.4077869 31.6655843,15.447271 C31.576079,15.5193744 31.4856986,15.5923392 31.3787966,15.6607948 C31.1441737,15.8120862 30.8747827,15.9466329 30.5819224,16.0678805 C30.5376073,16.0863393 30.491542,16.104798 30.4455028,16.1223954 C30.1674139,16.2305461 29.8684801,16.3236836 29.5530238,16.4037243 C29.522605,16.4114506 29.4947854,16.4202493 29.4635185,16.4273339 C29.3114263,16.46339 29.1550108,16.4951478 28.9968451,16.5241193 C28.7761194,16.5644648 28.5527937,16.6022262 28.3129464,16.6294836 C28.2260403,16.6391437 28.1356599,16.6445055 28.0470297,16.6524428 C27.7315743,16.6797002 27.4091703,16.7007344 27.0650462,16.7007344 C26.7330944,16.7007344 26.4080651,16.6805616 26.0874113,16.6524428 Z M15.8583108,16.6700401 C15.7879272,16.6646783 15.7183917,16.658455 15.6480072,16.6515901 C15.4455264,16.6331314 15.2465199,16.6093108 15.0501395,16.5794868 C14.9945004,16.5706881 14.9371641,16.5644648 14.881551,16.5548048 C14.6382302,16.5144592 14.4009812,16.4659654 14.1724319,16.4088752 C14.1298409,16.3983625 14.0907503,16.386127 14.0490344,16.3745419 C13.8630752,16.3253977 13.6831904,16.2708916 13.5093773,16.2112347 C13.4772353,16.1996496 13.4450663,16.1882755 13.4137733,16.1769014 C13.6110557,15.9236738 13.7657471,15.6565053 13.8691487,15.3751676 C13.8700238,15.3734536 13.8708728,15.3708782 13.8717479,15.3691554 C13.9195364,15.2388981 13.9560548,15.1062764 13.9812491,14.9708683 C13.9838474,14.9594942 13.9873217,14.9489815 13.9899479,14.9373876 C14.0151413,14.7959672 14.0299136,14.6508991 14.0299136,14.5032642 C14.0299136,14.3547592 14.0160164,14.2088296 13.9890719,14.0637702 L21.6876291,14.0637702 C21.7049997,14.0918802 21.7354185,14.1208517 21.7501899,14.1481003 C21.7554144,14.1586218 21.7597377,14.1693454 21.7649613,14.1790055 C21.8188503,14.2914545 21.8509932,14.4004666 21.8509932,14.5032642 C21.8509932,14.6051917 21.8179752,14.7133512 21.7693107,14.8223633 C21.7536642,14.8566965 21.7345434,14.8891048 21.7154226,14.9225855 C21.6711075,14.9998397 21.6137442,15.0781664 21.546834,15.1562732 C21.493821,15.2170113 21.440834,15.2715174 21.3843459,15.323448 C21.3365304,15.368083 21.2809182,15.4120763 21.2261802,15.4560697 C21.1288521,15.5335349 21.0288978,15.6090751 20.9159492,15.6803259 C20.8881296,15.6977035 20.8542366,15.7153009 20.8246937,15.7328982 C20.5857215,15.8762524 20.3163305,16.0054372 20.0225951,16.1198199 C19.9765298,16.1382699 19.9339649,16.1575901 19.8861755,16.1751786 C19.741031,16.2277597 19.5872156,16.2754008 19.4316752,16.3211082 C19.343045,16.3472933 19.2500393,16.3711138 19.1570597,16.3949256 C18.9728255,16.4414944 18.7851161,16.4844154 18.5896108,16.5213241 C18.3801814,16.5601666 18.1655284,16.5951503 17.9387023,16.6215463 C17.8300762,16.6348454 17.7197269,16.6436441 17.6102257,16.6533042 C17.2973947,16.6797002 16.978465,16.701587 16.6369401,16.701587 C16.3744977,16.7007344 16.1146537,16.6884988 15.8583108,16.6700401 Z M1.86378982,14.5032642 C1.86378982,13.9116174 2.72932436,13.12233 4.35001716,12.6652387 C4.36394042,12.6916347 4.38131104,12.7145938 4.39608245,12.7399175 C4.43952246,12.8156687 4.48211346,12.8912089 4.53252814,12.9615983 C4.60291264,13.0607393 4.67936977,13.1549493 4.76192648,13.2427162 C4.80799177,13.2912188 4.85753136,13.3341398 4.90707095,13.3789858 C4.96963176,13.4360672 5.03479091,13.4905821 5.10257621,13.5425127 C5.15039169,13.57856 5.197306,13.6146161 5.2485697,13.6470156 C5.36417047,13.7219142 5.48406762,13.7903697 5.6109655,13.8465898 C5.6405092,13.8598977 5.67177613,13.867835 5.70219492,13.8800705 C5.81517041,13.9249252 5.93161934,13.9618339 6.05154343,13.989944 C6.09413442,14.0004567 6.13669934,14.0101168 6.18101445,14.018054 C6.33050743,14.04445 6.48429766,14.0637702 6.64333845,14.0637702 L12.1241824,14.0637702 C12.1450273,14.0963806 12.1815188,14.1313644 12.1980412,14.1631222 L12.2006404,14.1682731 C12.260602,14.2852312 12.2918959,14.3976802 12.2918959,14.5032642 C12.2918959,14.6060531 12.2588779,14.7142126 12.2102134,14.8240861 C12.1893424,14.8697934 12.1563253,14.9172149 12.1267816,14.9637836 C12.0894151,15.0236603 12.0476992,15.0833172 11.9964355,15.1440465 C11.9434225,15.2064898 11.8852102,15.2680805 11.819149,15.3285988 C11.7765841,15.368083 11.7270454,15.4077869 11.6783809,15.447271 C11.5888756,15.5193744 11.4984952,15.5923392 11.3915932,15.6607948 C10.5199852,16.2208948 9.18865231,16.5749775 7.7713154,16.6672537 C7.69918071,16.6717629 7.62704603,16.675191 7.5531881,16.6779862 C7.3220387,16.6884988 7.09001508,16.6945023 6.85711636,16.6902129 C6.74414087,16.6884988 6.63898906,16.6797002 6.52863884,16.6743384 C6.03502096,16.6515901 5.54318021,16.6030876 5.068684,16.5108114 L4.77584974,16.4537299 C2.9370027,16.0380565 1.86378982,15.1755934 1.86378982,14.5032642 Z M45.7339641,18.429739 C45.5254106,21.3892391 43.0773979,23.7326388 40.1001789,23.7326388 L11.4228871,23.7326388 C8.43261896,23.7326388 5.97680953,21.3699277 5.78650181,18.3928215 C6.02807324,18.4164312 6.27574336,18.4331671 6.52688866,18.4436886 C6.60944536,18.4473364 6.69200207,18.448189 6.77543474,18.4507644 C6.87623716,18.4524785 6.9752894,18.4587105 7.07784287,18.4587105 C7.15692528,18.4587105 7.23253426,18.4533399 7.31074158,18.4524785 C7.39154811,18.4507644 7.47238157,18.4490504 7.5531881,18.446475 C7.79131129,18.4376763 8.02593412,18.4235158 8.25535854,18.403343 L8.25795775,18.403343 C9.66139834,18.2767248 10.8971272,17.9295069 11.8626151,17.4187709 C11.8669384,17.4215573 11.8721629,17.4224187 11.8765123,17.4249942 C12.1615498,17.5734904 12.4726558,17.704609 12.7976591,17.8232812 C12.8489228,17.84174 12.8984624,17.8619127 12.9506003,17.8795101 C13.2721292,17.990245 13.6101806,18.0850966 13.9621283,18.1651373 C14.0238401,18.1790868 14.0855258,18.1923947 14.1472376,18.2046214 C14.5052588,18.2793002 14.8737281,18.3408909 15.2534685,18.3823088 C15.3056073,18.3883211 15.3586203,18.3911075 15.4107591,18.3962584 C15.8122455,18.4348899 16.2198063,18.4604245 16.6351891,18.4604245 C18.7607977,18.4604245 20.5996178,17.9681385 21.8535915,17.167477 C22.0187058,17.2719887 22.1951172,17.3713407 22.3793514,17.4644783 C22.428891,17.4900129 22.4836281,17.511258 22.5348918,17.5357291 C22.6843848,17.6069711 22.8364509,17.676499 22.9954657,17.7395928 C23.0736991,17.770498 23.1553815,17.798608 23.235313,17.8275795 C23.3761072,17.8786487 23.5186264,17.9286543 23.6663431,17.9743617 C23.7567235,18.0024717 23.8488541,18.0271537 23.9418328,18.0526883 C24.0878263,18.0930339 24.235543,18.130804 24.3867601,18.1651373 C24.4840882,18.1870241 24.5814172,18.2082692 24.6804955,18.228442 C24.836911,18.2599889 24.9959258,18.2863849 25.1566898,18.3119195 C25.2540188,18.3269414 25.3504987,18.3426049 25.448702,18.3559128 C25.6259624,18.378661 25.8058472,18.395397 25.9874831,18.4112803 C26.0735141,18.4183649 26.15867,18.4288776 26.2455761,18.4340285 C26.5149671,18.4516258 26.7878315,18.4612771 27.0632952,18.4612771 C28.9551292,18.4612771 30.620164,18.0702857 31.8489434,17.4198433 C31.8532928,17.4224187 31.8584912,17.4232801 31.8628406,17.4258556 C32.1478781,17.5743518 32.4589841,17.7054705 32.7839873,17.8241426 C32.8352771,17.8426014 32.8847898,17.8627742 32.9369286,17.8803715 C33.2584844,17.9910976 33.5965089,18.0859492 33.9484557,18.1659987 C34.0101684,18.1801592 34.0718541,18.1932473 34.1335659,18.2054828 C34.4915862,18.2803726 34.8600564,18.3417523 35.2398228,18.3831702 C35.2919616,18.3891737 35.3449755,18.3919689 35.3971134,18.3971198 C35.7985738,18.4359623 36.2061607,18.4612771 36.6215443,18.4612771 C36.9830389,18.4612771 37.3332625,18.4428272 37.6773866,18.4147171 C37.7104046,18.4121417 37.7425466,18.4095663 37.7755906,18.4067711 C38.8957439,18.3084914 39.9098703,18.0702857 40.7658318,17.7185586 C40.8518628,17.7537533 40.9518162,17.7767212 41.0413215,17.8091207 C41.2446513,17.8837996 41.4497574,17.9533275 41.6652586,18.0157796 C41.8234243,18.061487 41.9833141,18.1018325 42.1475524,18.1404553 C42.3735034,18.1941087 42.6020527,18.2398161 42.8375506,18.2793002 C43.0096127,18.3084914 43.1808265,18.3346677 43.357211,18.3567742 C43.5918607,18.3857457 43.8273587,18.405057 44.067206,18.4209404 C44.2549145,18.4331671 44.4399986,18.4445412 44.6294573,18.448189 C44.7128891,18.4499118 44.7936956,18.4604245 44.8779764,18.4604245 C45.1656401,18.4604245 45.4472033,18.4490504 45.7243902,18.4314531 C45.7287396,18.429739 45.7313649,18.429739 45.7339641,18.429739 Z M46.2892677,16.603949 C46.1545722,16.6215463 46.0198767,16.6382823 45.8843061,16.6507287 C45.5888465,16.6769138 45.2838131,16.6936497 44.9622842,16.6964361 C44.8771283,16.6972975 44.7928205,16.6927883 44.7076646,16.6919357 C44.4565202,16.6884988 44.2088492,16.6743384 43.9638043,16.6541656 C43.8664754,16.6453669 43.7682721,16.6399963 43.6726673,16.6294836 C43.3876298,16.5979367 43.1095669,16.5522293 42.8393017,16.4985759 C42.7958347,16.4897772 42.7541188,16.4792645 42.7106788,16.4696132 L42.712429,16.4678904 C42.8436502,16.3316209 42.9626992,16.190851 43.0652257,16.04406 C43.0886959,16.0116605 43.1052175,15.9773272 43.1269375,15.9438465 C43.197322,15.8359068 43.2607579,15.7249609 43.3146469,15.612512 C43.3407154,15.5588586 43.3624355,15.5043525 43.3841555,15.4498465 C43.4258714,15.3470576 43.4588894,15.2416845 43.4867089,15.1352478 C43.4997302,15.0841698 43.5153767,15.034173 43.5257996,14.9822424 C43.5562175,14.8258001 43.5762142,14.6667824 43.5762142,14.5032642 C43.5762142,14.3556206 43.562317,14.2088296 43.5353726,14.0637702 L44.8797275,14.0637702 C45.0370172,14.0637702 45.1908335,14.04445 45.3411755,14.01634 C45.3924392,14.0075413 45.4419788,13.9942334 45.4923666,13.9820067 C45.5896956,13.9573247 45.6844245,13.9275007 45.7774041,13.892306 C45.8330163,13.8721332 45.8886555,13.8536745 45.9416424,13.8290013 C46.0580922,13.7755588 46.1701926,13.7148295 46.2770946,13.6444401 C46.3509534,13.5970187 46.4178636,13.5416513 46.485648,13.4871452 C46.5256407,13.4555984 46.5647313,13.4238405 46.6029729,13.3895072 C46.6742325,13.3253411 46.7411427,13.259461 46.8054537,13.1882102 C46.8254496,13.1663234 46.8428202,13.1425028 46.861941,13.1197546 C46.9992357,12.955375 47.1165606,12.7768262 47.2112895,12.5826226 C47.2147638,12.5766103 47.2190871,12.5703871 47.2217124,12.5641638 C49.0344631,12.9851991 50.0937806,13.8335017 50.0937806,14.5032642 C50.0937806,15.2777406 48.6703432,16.3007245 46.2892677,16.603949 Z" transform="translate(0 12.25)"/>
      <path d="M17.5463526,35.3718636 L17.5515848,35.3710096 L17.4651098,34.2973934 C17.3183906,32.4861373 16.8414504,30.5838767 15.9654063,28.3123697 C15.7181403,27.6710201 15.5801646,26.9465175 15.5242878,26.2150184 C15.4011352,24.5997614 15.7190924,22.9398566 16.4440498,22.0009834 C16.5855456,21.8172675 16.7026187,21.6125105 16.8187398,21.4068977 C17.3052708,20.5467447 17.5769595,19.516868 17.5725834,18.4240262 L17.5725834,18.423118 L17.5725834,18.422264 C17.5717361,18.3356399 17.568216,18.2560114 17.5629925,18.1754755 L17.5263062,16.9356075 L17.5027483,16.9417491 C16.962891,10.6155166 13.2470693,8.94161975 12.0216051,8.5504755 C11.9159396,8.36585225 11.7700764,8.006271 11.6713377,7.34126225 C11.6642974,7.29138112 11.646819,7.24673425 11.6363633,7.19861538 C12.5823561,6.88277363 13.2689239,6.35427013 13.2689239,5.54138112 L13.2689239,2.04138112 C13.2689239,0.53464425 10.9166381,0 8.90149997,0 C6.88636184,0 4.53407606,0.53464425 4.53407606,2.04138112 L4.53407606,5.54138112 C4.53407606,6.35427013 5.22064384,6.88186625 6.16578057,7.19776137 C6.15437286,7.24502538 6.13784653,7.29047375 6.13080624,7.3395 C6.03207626,8.00797987 5.8862043,8.36675962 5.74823738,8.56975525 C4.55241924,8.94247375 0.838396897,10.6155166 0.299404378,16.942604 L0.267950191,16.9338986 L0.239160133,18.1868514 C0.234783974,18.2638619 0.231272565,18.3408733 0.23041655,18.4240262 C0.222528983,19.7785026 0.623441027,21.0490262 1.35895015,22.0027465 C2.01672787,22.8549956 2.3495081,24.303146 2.31198319,25.7722316 C2.29705534,26.360229 2.22283533,26.9508969 2.08742772,27.5082395 C2.01928718,27.7864834 1.93633233,28.0568768 1.83674633,28.314132 C1.61751912,28.8819956 1.42357056,29.4262535 1.2532847,29.9521407 C0.742331041,31.5297465 0.44708445,32.9393916 0.336938019,34.2991023 C0.0714335853,37.5900184 -0.173168358,42.1557308 0.164948866,45.2628776 C0.196403053,46.8483881 1.67861938,48.7095254 8.46390156,48.7095254 C14.1598958,48.7095254 17.5796237,47.4223934 17.6354918,45.2637325 C17.9403379,42.4768593 17.7752843,38.5297465 17.5463526,35.3718636 Z M2.19490129,33.5308601 C2.21846791,33.3698951 2.23851439,33.2097316 2.26826528,33.0452421 C2.3145425,32.7853697 2.37573885,32.5167386 2.43769512,32.2481075 C2.47437275,32.0871425 2.50582693,31.9296486 2.547728,31.7651058 C2.62461213,31.4658733 2.71982197,31.1535026 2.81589656,30.8402246 C2.86047049,30.6941066 2.89714812,30.5541302 2.94608947,30.4044869 C3.09984026,29.9354781 3.27193423,29.4507675 3.46759482,28.9432517 C4.1759211,27.1057736 4.22486245,24.8561092 3.71913223,23.0282439 C3.49638488,22.225021 3.17842768,21.4952316 2.74254131,20.9308925 C2.73730914,20.923896 2.73294171,20.9151381 2.72771827,20.9081416 C2.6229001,20.7698741 2.53120167,20.6185219 2.44728598,20.4609755 C2.42116879,20.4111478 2.39749735,20.3595044 2.37393073,20.3087684 C2.31198319,20.1774974 2.25780967,20.0401381 2.20972433,19.8983986 C2.19309318,19.8493724 2.17475,19.8012535 2.15992696,19.7513732 C2.10757902,19.5728907 2.06738125,19.3865044 2.03763036,19.1957395 C4.00563524,19.6096338 6.39375137,19.8345254 8.90235598,19.8345254 C11.4110654,19.8345254 13.7982207,19.6096338 15.7662256,19.1966469 C15.7364747,19.3882675 15.6954296,19.5737456 15.643073,19.7522273 C15.6282499,19.8021084 15.6099068,19.8502272 15.5932756,19.8992535 C15.5461511,20.0409921 15.4910255,20.1766425 15.4299252,20.307861 C15.4055113,20.3595044 15.3818399,20.4120017 15.3557139,20.4618829 C15.2674221,20.6281355 15.1722123,20.7873916 15.0613146,20.9317474 C14.1694954,22.0876075 13.7108897,23.8953925 13.7414966,25.7346338 C13.759831,26.8379974 13.9537883,27.9527351 14.3363659,28.9441066 C14.5328738,29.4533838 14.7049678,29.9381477 14.8586225,30.4080123 C14.9067078,30.5541302 14.9416822,30.6897273 14.9852953,30.8323741 C15.0823219,31.1491241 15.1783965,31.464111 15.2561279,31.766014 C15.298885,31.9331206 15.3303392,32.0923759 15.3678729,32.2560114 C15.4282219,32.521118 15.4884662,32.7853697 15.5347434,33.0417701 C15.5661976,33.2150184 15.5871961,33.3829799 15.6116188,33.552757 C15.6360327,33.7190088 15.656184,33.8852614 15.6745272,34.048896 C13.7790302,34.4767299 11.4084013,34.708618 8.90235598,34.708618 C6.39631068,34.708618 4.02568172,34.475875 2.13028962,34.048896 C2.14862407,33.8773566 2.16952656,33.7050166 2.19490129,33.5308601 Z M6.28190164,2.23214687 C6.55795777,2.05975263 7.42706639,1.75 8.90235598,1.75 C10.3777417,1.75 11.246859,2.05975263 11.5228103,2.23214687 L11.5228103,5.35061625 C11.2975037,5.490646 10.6694768,5.72162587 9.64479184,5.80210838 C9.16177223,5.8371425 8.64122771,5.8371425 8.15991139,5.80210838 C7.13618722,5.72162587 6.50730439,5.490646 6.28190164,5.35061625 L6.28190164,2.23214687 Z M6.2687819,10.2409816 C6.70904443,10.1036224 7.07413487,9.8113855 7.29687348,9.42024212 C7.55896259,8.96351575 7.74854373,8.349243 7.91530944,7.54164075 C7.93802005,7.54334963 7.9642508,7.54249563 7.98781742,7.54425788 C8.29447172,7.569625 8.60187722,7.58276313 8.90235598,7.58276313 C9.24473581,7.58276313 9.57410072,7.56786275 9.94355857,7.594993 C10.0544562,8.34662587 10.2440373,8.96089863 10.5061264,9.41847987 C10.7297211,9.8113855 11.0956588,10.1027675 11.5367773,10.2401267 C12.4783939,10.533271 15.4272611,11.8982693 15.7880802,17.3958584 C13.8759521,17.8395 11.4660862,18.0827631 8.90320326,18.0827631 C6.34128987,18.0827631 3.93142397,17.8395 2.0184399,17.3950035 C2.37745088,11.8982693 5.3271653,10.5341259 6.2687819,10.2409816 Z M15.8964185,45.1123803 L15.8910815,45.208618 C15.8910815,45.657493 14.0629739,46.958618 8.46561359,46.958618 C3.28238984,46.958618 1.91276571,45.8132246 1.91276571,45.208618 L1.90754227,45.1123803 C1.62189528,42.5416408 1.76509437,38.8464965 1.97824213,35.8041303 C3.96021403,36.2267299 6.37104076,36.458618 8.90235598,36.458618 C11.433776,36.458618 13.8446027,36.2267299 15.8264698,35.8041303 C16.0387616,38.8447334 16.1819607,42.5381163 15.8964185,45.1123803 Z" transform="translate(54.14)"/>
    </g>
    <g transform="translate(242)">
      <mask id="b" fill="white">
        <use xlink:href="#a"/>
      </mask>
      <polygon stroke="#000000" stroke-opacity=".008" stroke-width=".5" points="0 0 66 0 66 42.732 0 42.732" mask="url(#b)"/>
      <g fill="#FFFFFF" transform="translate(.555)">
        <path d="M55.1896773,32.7608679 C55.2868311,32.1854277 55.4612945,31.6384596 55.6667684,31.1085755 C55.8300656,30.6926665 56.0229123,30.2938401 56.2466838,29.9120978 C56.6646756,29.1970352 57.1783604,28.5518286 57.7778596,27.9920382 C58.2085659,27.5917775 58.6800739,27.2399401 59.1852538,26.9365718 C60.0423695,26.4237704 60.9839246,26.042028 62.0000421,25.8668486 L62.0000421,32.7608679 L57.7778596,32.7608679 L55.6667684,32.7608679 L55.1896773,32.7608679 Z M16.7382845,32.7608679 L9.92645882,32.7608679 L9.92645882,25.8668486 C10.9440371,26.042028 11.8855923,26.4237704 12.7412471,26.9365718 C13.9544208,27.6629782 14.9635802,28.6857123 15.6813652,29.9120978 C16.188006,30.7781253 16.5651947,31.7310489 16.7382845,32.7608679 Z M56.2452229,5.69755244 C55.7399557,4.83152349 55.3628529,3.87716559 55.1896773,2.84878239 L62.0000421,2.84878239 L62.0000421,9.74136585 C60.9839246,9.56618643 60.0423695,9.18587848 59.1852538,8.67307708 C57.9735409,7.94667063 56.9643816,6.92393654 56.2452229,5.69755244 Z M9.92645882,7.12193746 L9.92645882,2.84878239 L16.7382845,2.84878239 C16.5651947,3.87716559 16.188006,4.83152349 15.6813652,5.69755244 C15.381572,6.20891805 15.033933,6.68607564 14.6384468,7.12193746 C14.0853324,7.73015129 13.4477787,8.250039 12.7412471,8.67307708 C12.3655179,8.8981584 11.9714067,9.09472353 11.5590839,9.25851499 C11.0355206,9.46646951 10.4964957,9.64451764 9.92645882,9.74136585 L9.92645882,9.25851499 L9.92645882,7.12193746 Z M54.9630714,39.882793 L2.8894881,39.882793 L2.8894881,9.9707075 L7.11167053,9.9707075 L7.11167053,11.2868549 L7.11167053,12.8194775 L7.11167053,24.3227939 L7.11167053,32.7608679 C7.11167053,34.3333932 8.3727759,35.6096379 9.92645882,35.6096379 L18.2638772,35.6096379 L18.2920532,35.6096379 L52.1482831,35.6096379 L53.6640846,35.6096379 L54.9630714,35.6096379 L54.9630714,39.882793 Z M62.0000421,22.9981272 C61.0176838,23.1248818 60.07338,23.3756092 59.1852538,23.7445292 C58.6969091,23.946789 58.2296965,24.1889103 57.7778596,24.4595477 C57.0123146,24.9139265 56.3029486,25.4566343 55.6667684,26.0790635 C55.4219522,26.3197931 55.1869287,26.5719121 54.9630714,26.8339861 C54.1876479,27.7456125 53.5500941,28.7811261 53.0912991,29.9120978 C52.7267376,30.8094661 52.4790868,31.7666485 52.3552179,32.7608679 L52.1482831,32.7608679 L21.185612,32.7608679 L19.5826224,32.7608679 C19.4573798,31.7637798 19.1941802,30.8109004 18.8297045,29.9120978 C17.6967621,27.1231406 15.498397,24.888279 12.7412471,23.7416605 C11.8546676,23.3727405 10.910278,23.1248818 9.92645882,22.9981272 L9.92645882,12.8194775 L9.92645882,12.6115216 C10.910278,12.484767 11.8546676,12.2340396 12.7412471,11.8651196 C13.8587279,11.4007858 14.8819738,10.7569695 15.7826413,9.9707075 C16.0430064,9.74423456 16.292118,9.50776385 16.5299761,9.25851499 C17.1436492,8.61469866 17.6798396,7.89681146 18.130217,7.12193746 C18.3947902,6.6646885 18.6354841,6.19179125 18.8352877,5.69755244 C19.1998506,4.80018275 19.4475013,3.84443464 19.5727439,2.84878239 L21.185612,2.84878239 L52.1482831,2.84878239 L52.3552179,2.84878239 C52.4790868,3.84443464 52.7267376,4.80018275 53.0912991,5.69755244 C53.2925649,6.19179125 53.5317966,6.6646885 53.7977448,7.12193746 C54.7632664,8.78418338 56.1354419,10.1729673 57.7778596,11.1515369 C58.2296965,11.4193042 58.6969091,11.6614682 59.1852538,11.8651196 C60.07338,12.2340396 61.0176838,12.484767 62.0000421,12.6115216 L62.0000421,22.9981272 Z M62.0000421,1.23444164e-05 L53.6640846,1.23444164e-05 L18.2638772,1.23444164e-05 L9.92645882,1.23444164e-05 C8.3727759,1.23444164e-05 7.11167053,1.27625563 7.11167053,2.84878239 L7.11167053,7.12193746 L2.8894881,7.12193746 C1.33580519,7.12193746 0.0746998206,8.39818074 0.0746998206,9.9707075 L0.0746998206,39.882793 C0.0746998206,41.4553183 1.33580519,42.731563 2.8894881,42.731563 L54.9630714,42.731563 C56.518301,42.731563 57.7778596,41.4553183 57.7778596,39.882793 L57.7778596,35.6096379 L62.0000421,35.6096379 C63.5552717,35.6096379 64.8148304,34.3333932 64.8148304,32.7608679 L64.8148304,24.3227939 L64.8148304,11.2868549 L64.8148304,2.84878239 C64.8148304,1.27625563 63.5552717,1.23444164e-05 62.0000421,1.23444164e-05 Z M36.6675499,25.6389428 C32.7873361,25.6389428 29.6305792,22.4440301 29.6305792,18.5170176 C29.6305792,16.1796132 30.7649811,14.1184982 32.4890037,12.8194775 C33.6613743,11.9363645 35.0968586,11.3950925 36.6675499,11.3950925 C38.2382397,11.3950925 39.6737241,11.9363645 40.8460946,12.8194775 C42.5701173,14.1184982 43.7045206,16.1796132 43.7045206,18.5170176 C43.7045206,22.4440301 40.5477623,25.6389428 36.6675499,25.6389428 Z M41.7158375,9.9707075 C41.266921,9.6972441 40.795413,9.45794884 40.3028588,9.25851499 C39.1769618,8.80413475 37.9525345,8.54632248 36.6675499,8.54632248 C35.3825638,8.54632248 34.1581366,8.80413475 33.0322396,9.25851499 C32.5396854,9.45794884 32.0681774,9.6972441 31.6192609,9.9707075 C30.4229252,10.6971567 29.3913461,11.6657285 28.5947047,12.8194775 C27.4772239,14.4361674 26.8157909,16.3989571 26.8157909,18.5170176 C26.8157909,24.0137308 31.2350282,28.4877128 36.6675499,28.4877128 C42.1000702,28.4877128 46.5193089,24.0137308 46.5193089,18.5170176 C46.5193089,16.3989571 45.8578744,14.4361674 44.7403936,12.8194775 C43.9437523,11.6657285 42.9121732,10.6971567 41.7158375,9.9707075 Z"/>
      </g>
    </g>
    <path fill="#FFFFFF" d="M53.7306576,21.3526563 C54.8417815,19.8556561 55.5,18.003344 55.5,16 C55.5,11.0373439 51.462656,7 46.5,7 C44.0314693,7 41.7921552,7.99918722 40.1645622,9.61421894 C39.6830549,8.85179416 39.1232757,8.15198153 38.4852189,7.51478097 C36.2188138,5.24818777 33.2053127,4 30,4 C26.7946872,4 23.7811875,5.24818777 21.5146866,7.51468797 C20.8767056,8.15194938 20.316925,8.851762 19.8353448,9.61412594 C18.2078433,7.99918722 15.9685306,7 13.5,7 C8.53734398,7 4.5,11.0373439 4.5,16 C4.5,18.003344 5.15821874,19.8556561 6.26934384,21.3526563 C2.7175312,21.941688 0,25.0337486 0,28.75 L0,32.875 C0,35.1495618 1.85043757,37 4.125,37 L15.1572188,37 C15.648282,38.7292194 17.2405314,40 19.125,40 L40.875,40 C42.7595615,40 44.3517179,38.7292194 44.8427811,37 L55.875,37 C58.1495647,37 60,35.1495618 60,32.875 L60,28.75 C60,25.0337486 57.2825603,21.9416866 53.7306576,21.3526563 Z M46.2224132,10.2307692 C49.5930793,10.2307692 52.3255814,12.865421 52.3255814,16.1153846 C52.3255814,19.3653481 49.5930793,22 46.2224132,22 C44.1165333,22 42.2597389,20.9715717 41.1627907,19.4071827 C41.4800597,18.3509863 41.645037,17.2455066 41.645037,16.1153846 C41.645037,14.9852625 41.4800597,13.8797828 41.1627907,12.8235864 C42.2597418,11.2591974 44.1165333,10.2307692 46.2224132,10.2307692 Z M30,6.76923077 C35.0091559,6.76923077 39.0697674,10.7986997 39.0697674,15.7692308 C39.0697674,20.7397617 35.0091559,24.7692308 30,24.7692308 C24.990844,24.7692308 20.9302326,20.7397617 20.9302326,15.7692308 C20.9302326,10.7986997 24.990844,6.76923077 30,6.76923077 Z M13.7775869,10.2307692 C15.8834667,10.2307692 17.7402596,11.2591974 18.8372093,12.8235864 C18.5199389,13.8797828 18.3549631,14.9852625 18.3549631,16.1153846 C18.3549631,17.2455066 18.5199389,18.3509863 18.8372093,19.4071827 C17.7402596,20.9715717 15.8834652,22 13.7775869,22 C10.4069214,22 7.6744186,19.3653481 7.6744186,16.1153846 C7.6744186,12.865421 10.4069214,10.2307692 13.7775869,10.2307692 Z M14.6527026,31.4792899 L14.6527026,34.4615385 L3.90276063,34.4615385 C3.28862396,34.4615385 2.79069767,33.9608016 2.79069767,33.3431953 L2.79069767,29.2426036 C2.79069767,26.7719961 4.78221689,24.7692308 7.23894951,24.7692308 L9.61644726,24.7692308 C11.8752318,25.7628775 14.4605938,25.7646493 16.7233632,24.7692308 L18.8372093,24.7692308 C16.3626842,25.9785338 14.6527026,28.5317109 14.6527026,31.4792899 Z M41.8604651,36.1181319 C41.8604651,36.7325871 41.3626049,37.2307692 40.7485465,37.2307692 L19.2514535,37.2307692 C18.6373965,37.2307692 18.1395349,36.7325871 18.1395349,36.1181319 L18.1395349,31.2967033 C18.1395349,28.838701 20.1307962,26.8461538 22.5872093,26.8461538 L24.2485098,26.8461538 C27.7527207,28.796144 32.1438739,28.8536298 35.7514929,26.8461538 L37.4127907,26.8461538 C39.869205,26.8461538 41.8604651,28.838701 41.8604651,31.2967033 L41.8604651,36.1181319 Z M57.2093023,33.3431953 C57.2093023,33.9608016 56.7113774,34.4615385 56.0972394,34.4615385 L45.3472975,34.4615385 L45.3472975,31.4792899 C45.3472975,28.5317109 43.6373157,25.9785338 41.1627907,24.7692308 L43.2766367,24.7692308 C45.5354213,25.7628775 48.1207833,25.7646493 50.3835555,24.7692308 L52.7610505,24.7692308 C55.2177838,24.7692308 57.2093023,26.7719961 57.2093023,29.2426036 L57.2093023,33.3431953 Z"/>
  </g>
</svg>
